<svg width="96" height="87" viewBox="0 0 96 87" fill="none" xmlns="http://www.w3.org/2000/svg">
<g id="camera_icon_svg">
<g id="Frame">
<path id="Vector" d="M48 65L53.625 52.2812L66 46.5L53.625 40.7188L48 28L42.375 40.7188L30 46.5L42.375 52.2812L48 65Z" fill="#000139"/>
<path id="Vector_2" d="M33.6 0L24.816 9.66667H9.6C4.32 9.66667 0 14.0167 0 19.3333V77.3333C0 82.65 4.32 87 9.6 87H86.4C91.68 87 96 82.65 96 77.3333V19.3333C96 14.0167 91.68 9.66667 86.4 9.66667H71.184L62.4 0H33.6ZM48 72.5C34.752 72.5 24 61.6733 24 48.3333C24 34.9933 34.752 24.1667 48 24.1667C61.248 24.1667 72 34.9933 72 48.3333C72 61.6733 61.248 72.5 48 72.5Z" fill="#000139"/>
</g>
</g>
</svg>
